<svg width="44" height="44" viewBox="0 0 44 44" fill="none" xmlns="http://www.w3.org/2000/svg">
<rect width="44" height="44" rx="8" fill="#9747FF"/>
<path d="M8.5 12.1818V19.5455H15.8636" stroke="white" stroke-width="2.7" stroke-linecap="round" stroke-linejoin="round"/>
<path d="M35.5 31.8181V24.4545H28.1364" stroke="white" stroke-width="2.7" stroke-linecap="round" stroke-linejoin="round"/>
<path d="M32.4195 18.3182C31.7971 16.5592 30.7392 14.9866 29.3447 13.7471C27.9501 12.5076 26.2642 11.6415 24.4444 11.2298C22.6246 10.818 20.7301 10.874 18.9377 11.3924C17.1454 11.9109 15.5136 12.8749 14.1945 14.1946L8.5 19.5455M35.5 24.4546L29.8055 29.8055C28.4864 31.1251 26.8546 32.0892 25.0623 32.6076C23.2699 33.126 21.3755 33.182 19.5556 32.7702C17.7358 32.3585 16.0499 31.4924 14.6553 30.2529C13.2608 29.0134 12.2029 27.4408 11.5805 25.6818" stroke="white" stroke-width="2.7" stroke-linecap="round" stroke-linejoin="round"/>
</svg>
