<svg width="44" height="44" viewBox="0 0 44 44" fill="none" xmlns="http://www.w3.org/2000/svg">
<rect width="44" height="43.8226" rx="8" fill="#EE6668"/>
<path d="M27.6821 22.0981C27.6821 23.0192 27.7982 24.2782 27.9292 25.406C28.0961 26.8419 29.536 27.7648 30.8456 27.1528C32.7526 26.2615 34.5016 24.9855 35.7689 23.188C36.2301 22.5338 36.2302 21.6623 35.769 21.0081C34.5017 19.2106 32.7527 17.9345 30.8457 17.0433C29.5362 16.4313 28.0962 17.3542 27.9293 18.79C27.7982 19.9178 27.6821 21.1769 27.6821 22.0981Z" stroke="white" strokeWidth="3.59169" strokeLinecap="round" strokeLinejoin="round"/>
<path d="M24.9102 12.8127C24.8407 10.9141 23.6638 9.35473 22.1254 9.20589C20.7273 9.07062 19.2873 9 17.8165 9C16.3456 9 14.9056 9.07062 13.5075 9.20589C11.9691 9.35473 10.7922 10.9141 10.7227 12.8127C10.6154 15.7451 10.5588 18.7892 10.5588 21.9113C10.5588 25.0334 10.6154 28.0775 10.7227 31.0099C10.7922 32.9085 11.9691 34.4679 13.5075 34.6167C14.9056 34.752 16.3456 34.8226 17.8165 34.8226C19.2873 34.8226 20.7273 34.752 22.1254 34.6167C23.6638 34.4679 24.8407 32.9085 24.9102 31.0099" stroke="white" strokeWidth="3.59169" strokeLinecap="round"/>
<path d="M17.0703 22.0982L27.6822 22.0982" stroke="white" strokeWidth="3.59169" strokeLinecap="round" strokeLinejoin="round"/>
</svg>
