<svg width="44" height="44" viewBox="0 0 44 44" fill="none" xmlns="http://www.w3.org/2000/svg">
<rect width="44" height="44" rx="8" fill="#B5E2C9"/>
<path d="M16.5548 11.7314C18.4452 10.5991 20.6073 10.0007 22.8109 10C24.6442 9.99892 26.4542 10.4117 28.1058 11.2075C29.7574 12.0033 31.2082 13.1616 32.3498 14.5961C33.4915 16.0306 34.2946 17.7043 34.6994 19.4924C35.1042 21.2805 35.1001 23.137 34.6875 24.9233C34.275 26.7096 33.4645 28.3798 32.3166 29.8093C31.1687 31.2388 29.713 32.3908 28.0579 33.1794C26.4028 33.968 24.5911 34.3728 22.7577 34.3638C21.2276 34.3562 19.7153 34.0604 18.2993 33.4948L11.6409 34.6035C10.897 34.7274 10.2889 34.0145 10.5285 33.2994L12.2318 28.2155C11.283 26.5513 10.738 24.6831 10.6465 22.7617C10.5416 20.5607 11.0357 18.3724 12.0762 16.43C13.1166 14.4875 14.6645 12.8637 16.5548 11.7314Z" stroke="white" stroke-width="3" stroke-linecap="round" stroke-linejoin="round"/>
</svg>
